/* XPM */
static char *EC[] = {
/* columns rows colors chars-per-pixel */
"32 32 125 2 ",
"   c #6E5967",
".  c #6D5E6C",
"X  c #765C69",
"o  c #7B5E6B",
"O  c #7E626D",
"+  c #6B6574",
"@  c #666877",
"#  c #6C6876",
"$  c #6D6B79",
"%  c #766674",
"&  c #706977",
"*  c #736D7A",
"=  c #76737E",
"-  c #805F6B",
";  c #83616D",
":  c #88646F",
">  c #846571",
",  c #8A6470",
"<  c #856972",
"1  c #8D6A73",
"2  c #946674",
"3  c #926E76",
"4  c #9A6975",
"5  c #9F6A78",
"6  c #8F777C",
"7  c #917077",
"8  c #9E7077",
"9  c #947379",
"0  c #9A757A",
"q  c #9C7A7D",
"w  c #A16E76",
"e  c #A56D79",
"r  c #A96E7A",
"t  c #B06F78",
"y  c #A2757B",
"u  c #AD707B",
"i  c #A27B7E",
"p  c #A8787D",
"a  c #B0777E",
"s  c #B3787E",
"d  c #6C7482",
"f  c #6F7886",
"g  c #707684",
"h  c #7C7380",
"j  c #717987",
"k  c #767E8B",
"l  c #9C7D80",
"z  c #A57E81",
"x  c #AC7C81",
"c  c #B07F83",
"v  c #78838E",
"b  c #6E8492",
"n  c #728A97",
"m  c #7E8A94",
"M  c #778F9B",
"N  c #9A8384",
"B  c #80919B",
"V  c #A38180",
"C  c #A88383",
"Z  c #AC8A86",
"A  c #AB8D8B",
"S  c #B38285",
"D  c #B98886",
"F  c #BB8789",
"G  c #B68888",
"H  c #BA8C8B",
"J  c #AB918D",
"K  c #BE908D",
"L  c #AB9591",
"P  c #AB9994",
"I  c #C28685",
"U  c #CC8082",
"Y  c #C08F8D",
"T  c #D18184",
"R  c #D78988",
"E  c #C1948C",
"W  c #C2928F",
"Q  c #DA948F",
"!  c #C39390",
"~  c #C39490",
"^  c #C39490",
"/  c #C59D91",
"(  c #CC9F93",
")  c #E38B8A",
"_  c #EA9F95",
"`  c #CDA396",
"'  c #EBA196",
"]  c #EBA297",
"[  c #EDA79A",
"{  c #ECA498",
"}  c #EEA89A",
"|  c #EEA99B",
" . c #EEA99B",
".. c #DEB4A5",
"X. c #E5B7A4",
"o. c #EDBAA6",
"O. c #F2B4A1",
"+. c #F3B6A2",
"@. c #F5BBA5",
"#. c #F2BDA6",
"$. c #F7C1A9",
"%. c #F6C6AC",
"&. c #F8C2A9",
"*. c #F8C3A9",
"=. c #F9C6AC",
"-. c #FAC7AC",
";. c #F9C6AC",
":. c #FAC8AC",
">. c #FAC8AD",
",. c #FAC9AD",
"<. c #FBC9AD",
"1. c #FBCAAE",
"2. c #FBCBAF",
"3. c #FBC9AE",
"4. c #FBCCB0",
"5. c #FACCB1",
"6. c #FBCDB1",
"7. c #FBCEB2",
"8. c #FACEB3",
"9. c #FBCFB3",
"0. c #FBD1B5",
"q. c #FBD1B5",
"w. c #FBD4B8",
"e. c #FAD4B9",
"r. c #FBD6BA",
/* pixels */
"3 0 l N N < V 3 3 Z Z L J P C O V Z A J L P A 3 3 V < 0 0 0 0 o ",
"~ ~ K z A X.%./ / >.>.8.8.8.>.q =.>.>.8.8.8.>./ / %.X.A y D Z > ",
"~ H i ..e.8.&.H H $.&.&.&.&.@.0 +.&.&.&.&.&.$.H H &.8.e...i H 0 ",
"H 1 o.0.>.} ) t , w w w w w w O w w w w w w w , t ) } >.0.o.1 3 ",
"6 E >.>.' U O   o 5 u u u u e o + + X e u u u e , O U ' >.>.E 1 ",
"0 #.>.+.R X   o ; , , , , , ; X + +   X X X X X X   X R +.>.#.0 ",
"q >.>.[ 4   ; r a F H H H H a o # # X 8 z C C C C y 2 w [ >.>.q ",
"O C Z y o   ; , 3 9 9 9 9 9 3 X # # X 1 9 9 9 9 9 3 , o y Z C O ",
"0 &.=._ ; . $ % S ~ ~ ~ ~ ~ ~ F # # S ~ ~ ~ ~ ~ p # $ ; _ =.&.0 ",
"N e.>.} ; # v * C ! ~ ~ ~ ~ ~ ~ # $ K ~ ~ ~ ~ ~ 8 j k > } >.e.N ",
"N 8.>.} ; o 0 z G H H H H H H c * = x H H H H H G q 3 : } >.8.N ",
"N 8.>.} ;                       * = 2 q q q q q q q 3 : } >.8.N ",
"q >.>.} ; ; r u u u u u u u u e & * K ~ ~ ~ ~ ~ ~ ~ ~ 1 } >.>.q ",
"1 ( ` I o o 2 4 4 4 4 4 4 4 4 , & * 8 C C C C C C C y ; I ` ( 1 ",
"1 ( ` I o ; z C C C C C C C C y + + 8 C C C C C C C y ; I ` ( 1 ",
"N 0.>.} ; 9 ~ ~ ~ ~ ~ ~ ~ ~ H q . . 8 H ~ ~ ~ ~ ~ ~ ~ 1 } >.0.N ",
"N 0.>.} ; o 0 q q q q q q q , v m k B ; q q q q q q 3 : } >.0.N ",
"N 0.>.} ;   X ; ; ; ; ; ; ; X j m g B 1 G H H H H H S , } >.0.N ",
"q >.>.} ;   2 u u u u u u u , j m g B 0 W ~ ~ ~ ~ ~ W 1 } >.>.q ",
"0 &.=._ ;   o , , , , , , , o j m g B o 7 9 9 9 9 9 1 ; _ =.&.0 ",
"O C Z y o 1 Y ~ ~ ~ ~ ~ ~ W 8 j m g B X ; , , , , , ; o y Z C O ",
"q 8.>.[ ; 3 W ~ ~ ~ ~ ~ ~ ! q j m g B , r u u u u u e , [ >.8.q ",
"N e.>.} ; o 3 9 9 9 9 9 9 9 ; f m d B o , 1 1 1 1 1 , ; } >.e.N ",
"N 0.>.} ; o 3 i H ~ ~ ~ ~ ~ x % g @ h p W ~ ~ ~ F 0 9 : } >.0.N ",
"q >.>.} ; $ M d z ~ ~ ~ ~ ~ ~ H # # D ~ ~ ~ ~ ~ 1 b n > } >.>.q ",
"q ;.>.[ ;   . O y C C C C C C y # $ z C C C C C 8 . . ; [ >.;.q ",
"O C Z y o o 2 4 4 4 4 4 4 4 2 X # # 8 C C C C C C C y o y Z C O ",
"0 ;.=.' ; ; r u u u u u u u e o # # K ~ ~ ~ ~ ~ ~ ~ ~ 1 ' =.;.0 ",
"N e.>.} ;                       # # 2 q q q q q q q 3 : } >.e.N ",
"q =.>.[ ; , G H H H H H H H H c + + X ; ; ; ; ; ; ; ; ; [ >.=.q ",
"1 Q Q T - , G H H H H H H H H x + + X 5 e e e e e e 5 ; T Q Q 1 ",
"                                                                "
};
