/* XPM */
static char *PU[] = {
/* columns rows colors chars-per-pixel */
"32 32 146 2 ",
"   c #3F3851",
".  c #5C3B4F",
"X  c #473852",
"o  c #413C55",
"O  c #493B51",
"+  c #563753",
"@  c #523E53",
"#  c #733E4A",
"$  c #37465F",
"%  c #3A4159",
"&  c #3B475D",
"*  c #346171",
"=  c #3B7176",
"-  c #514255",
";  c #554557",
":  c #5A4356",
">  c #5A4557",
",  c #584759",
"<  c #5A495A",
"1  c #5A4D5B",
"2  c #58495D",
"3  c #624B5A",
"4  c #765154",
"5  c #70545C",
"6  c #78635F",
"7  c #4D4D64",
"8  c #4B526A",
"9  c #4D566E",
"0  c #525267",
"q  c #575B70",
"w  c #575E74",
"e  c #675664",
"r  c #685465",
"t  c #7D5A60",
"y  c #715B69",
"u  c #775F6B",
"i  c #735F6C",
"p  c #7D5E6C",
"a  c #615C70",
"s  c #5C6276",
"d  c #5F6376",
"f  c #79636E",
"g  c #61697D",
"h  c #656C7D",
"j  c #BF3958",
"k  c #C33B56",
"l  c #C53C55",
"z  c #815654",
"x  c #8F6465",
"c  c #80626E",
"v  c #82636F",
"b  c #826670",
"n  c #836771",
"m  c #876B73",
"M  c #856D72",
"N  c #896C75",
"B  c #986673",
"V  c #926D76",
"C  c #936D76",
"Z  c #8B7077",
"A  c #957178",
"S  c #98767B",
"D  c #9A787C",
"F  c #9C7C7F",
"G  c #A57C7F",
"H  c #BF7F70",
"J  c #C7474A",
"K  c #C7484B",
"L  c #DA4949",
"P  c #DD514C",
"I  c #CF5E54",
"U  c #E65741",
"Y  c #E15850",
"T  c #DA705E",
"R  c #E96A4A",
"E  c #E56656",
"W  c #E96D5A",
"Q  c #F07860",
"!  c #EF895A",
"~  c #C68677",
"^  c #D1917E",
"/  c #F09461",
"(  c #F2A56B",
")  c #F6C27D",
"_  c #267184",
"`  c #267385",
"'  c #277887",
"]  c #597087",
"[  c #5B748B",
"{  c #5F7D93",
"}  c #777485",
"|  c #6C7E92",
" . c #9C7D80",
".. c #A27D80",
"X. c #B07D82",
"o. c #298A91",
"O. c #2E9695",
"+. c #6C879B",
"@. c #788693",
"#. c #708DA0",
"$. c #768EA1",
"%. c #7593A4",
"&. c #7B95A6",
"*. c #9F8586",
"=. c #A48284",
"-. c #A78787",
";. c #AA8384",
":. c #AD8585",
">. c #A28B8C",
",. c #B88285",
"<. c #B28888",
"1. c #BD8B8A",
"2. c #BB8E8C",
"3. c #A59192",
"4. c #819BAB",
"5. c #829DAC",
"6. c #849FAD",
"7. c #85A1AF",
"8. c #89A6B2",
"9. c #8CA9B5",
"0. c #8FACB7",
"q. c #95B2BC",
"w. c #98B5BE",
"e. c #9AB7BF",
"r. c #D49985",
"t. c #D79E8A",
"y. c #C39490",
"u. c #C69B95",
"i. c #CAA29A",
"p. c #DAA692",
"a. c #D4A997",
"s. c #DEB19C",
"d. c #9DBAC1",
"f. c #9FBCC2",
"g. c #A0BDC4",
"h. c #B6BBC5",
"j. c #A5C2C7",
"k. c #B3CCD0",
"l. c #BDD3D6",
"z. c #CBDCDE",
"x. c #D2DFE2",
"c. c #D5E3E4",
"v. c #DFEAEA",
"b. c #E8F0F0",
"n. c #EDF4F3",
"m. c #F2F7F6",
/* pixels */
"C S  .*.*.S  .S S S S S S S S p C S Z 7 0 0 0 0 0 0 0 0 a 0 m p ",
"y.y.y.y.y.y.y.y.y.y.1.,.,.1.:.n y.y.  7.d.d.d.d.d.d.d.d.x.l.  n ",
"y.y.y.y.y.y.y.y.y.y.u.u.i.y.y.A y.y.  $.4.w.9.9.9.9.4.w.9.m.  A ",
"1.y.y.y.y.y.y.y.y.y.y.y.y.y.y.C 1.y.  $.6.q.9.9.9.9.6.q.9.m.  C ",
"*. .S S S S S p C S  .*.*. .S S *. .  $.9.9.9.9.9.9.9.9.9.k.  S ",
"y.y.y.1.1.1.:.n y.y.y.y.y.y.y.y.y.y.  $.8.0.9.9.9.9.8.0.9.n.  y.",
"y.y.y.u.i.y.y.A y.y.y.y.y.y.y.y.y.y.  $.&.f.9.9.9.9.&.f.9.v.  y.",
"y.y.y.y.y.y.y.C 1.y.y.y.y.y.y.y.y.y.  +.5.5.5.5.5.5.5.5.5.w.  y.",
"C S  .*.3.>. . .S S S S S S S p C S i 9 w w w w w w w w w g y p ",
"y.y.y.y.y.y.y.y.y.y.y.y.y.y.y.S y.y.y.........      ........y.S ",
"y.y.y.y.y.2.> < < > 2.X.: , ; @ 2.2.< 1 < 2.y.  o   y.,.1.:.S v ",
"1.y.y.y.y.  U ! ! U     U ! ! U     / ) /   y.  {   y.y.u.i.y.C ",
"S S S S S   ! ! ! ! z z ! ! ! ! z z ) ) )   S   #.   .*.>.3.*.S ",
"y.y.,.1.1.  R ! ! ! ! ! ! ! ! ! ! ! ) ) (   y.  9.  y.y.y.y.y.y.",
"y.y.u.y.u.  # 4 4 4 4 4 4 4 4 4 4 4 6 6 4   y.  9.  y.y.y.y.y.y.",
"y.y.y.y.2 ]   ]   ] | |   ] | |   h.h.  B | 2   g.  y.y.y.y.y.y.",
"C S  .*.    + . . . . . . . . . . . . . .       j.  S S S S S p ",
"y.y.y.y.r   k L L P Y Y Y Y Y Y Y Y Y P L   r   l.  1.,.,.1.:.n ",
"y.y.y.y.y.  L L L W Q Q Q Q Q Q Q Q Q W L   y.  z.  u.u.i.y.y.A ",
"1.y.y.y.y.  l L L Q Q Q Q Q Q Q Q Q Q Q L   y.  c.  y.y.y.y.y.C ",
"*. .S S S   + j L E Q Q Q Q Q Q Q Q Q E .   S   m.   .*.*. .S S ",
"y.y.y.1.1.    X J K I T T T T T T T I O     y.  b.  y.y.y.y.y.y.",
"y.y.y.=.-.                                  n   j.  y.y.y.y.y.y.",
"y.y.N M M M M t 5                   5 t M M M M @.  y.y.y.y.y.y.",
"C S   r.s.s.s.t.H x x x x x x x x x H t.s.s.s.r.    S S S S S p ",
"y.y...3 e ^ s.s.p.p.p.p.p.p.p.p.p.p.p.s.s.^ e 3     y.y.y.y.y.S ",
"y.y.y.<.<.- ~ a.a.a.a.a.a.a.a.a.a.a.a.a.~ - <.  [   y.,.1.:.S v ",
"1.y.y.y.y.  % & & & & & & & & & & & & & %   y.  ]   y.y.u.i.y.C ",
"S S S S S   _ o.o.o.o.O.O.O.o.O.o.o.o.o._   u 8 s h f *.>.3.*.S ",
"y.y.,.1.1.  ' o.' * * = = = * = * * ' o.'     %.w.z.  y.y.y.y.y.",
"y.y.u.y.u.F $ _ $ D D D D D D D D D $ _ $ F F q s } D y.y.y.y.y.",
"y.y.y.y.y.y.;.%   y.y.y.y.y.y.y.y.y.  % ;.y.y.v G ;.y.y.y.y.y.y."
};
