/* XPM */
static char *P_A[] = {
/* columns rows colors chars-per-pixel */
"32 32 183 2 ",
"   c #3F3851",
".  c #433A52",
"X  c #493E55",
"o  c #563952",
"O  c #733E4E",
"+  c #683854",
"@  c #763B52",
"#  c #3B435A",
"$  c #354D64",
"%  c #36586A",
"&  c #36546C",
"*  c #315A71",
"=  c #296078",
"-  c #4B4157",
";  c #4D4359",
":  c #47455C",
">  c #514459",
",  c #57485C",
"<  c #5B4B5E",
"1  c #5A4758",
"2  c #7F424D",
"3  c #664C59",
"4  c #64575D",
"5  c #74545E",
"6  c #7C525B",
"7  c #5E4D60",
"8  c #4C556D",
"9  c #585A6E",
"0  c #585569",
"q  c #4F5B72",
"w  c #535D74",
"e  c #5D5E71",
"r  c #624E61",
"t  c #665464",
"y  c #6B5665",
"u  c #735B69",
"i  c #7D5E6C",
"p  c #7C5C63",
"a  c #546179",
"s  c #5C667C",
"d  c #5F697F",
"f  c #576076",
"g  c #7B626D",
"h  c #68687A",
"j  c #756976",
"k  c #803F4E",
"l  c #8C3956",
"z  c #B03956",
"x  c #C83E53",
"c  c #8F434E",
"v  c #855D59",
"b  c #9C4F53",
"n  c #A65957",
"m  c #85645D",
"M  c #BE6B5F",
"N  c #A96956",
"B  c #866D62",
"V  c #80626E",
"C  c #86666A",
"Z  c #877569",
"A  c #887B6F",
"S  c #836771",
"D  c #816A71",
"F  c #8C6D74",
"G  c #926D76",
"H  c #867B72",
"J  c #947178",
"K  c #98767B",
"L  c #AD707B",
"P  c #AB7173",
"I  c #DB4B4A",
"U  c #D6474B",
"Y  c #DD524D",
"T  c #D15148",
"R  c #CD4151",
"E  c #CF514F",
"W  c #E0564F",
"Q  c #E15750",
"!  c #E15850",
"~  c #DB705E",
"^  c #CA7959",
"/  c #E56456",
"(  c #E96F5C",
")  c #EE755E",
"_  c #E8795A",
"`  c #E96648",
"'  c #C07F71",
"]  c #F07860",
"[  c #EF895A",
"{  c #DA8E62",
"}  c #D99668",
"|  c #CE9E70",
" . c #CE8C70",
".. c #F19B65",
"X. c #F59570",
"o. c #F38768",
"O. c #DFB27D",
"+. c #DEB077",
"@. c #E6AA72",
"#. c #E0B87F",
"$. c #F3BE7B",
"%. c #F4B474",
"&. c #F2A068",
"*. c #F6C27D",
"=. c #2E7580",
"-. c #287988",
";. c #327D83",
":. c #636E81",
">. c #6C7A8B",
",. c #697587",
"<. c #717C8C",
"1. c #787583",
"2. c #6B7D91",
"3. c #9C7D80",
"4. c #A67F82",
"5. c #B57C82",
"6. c #2B848C",
"7. c #398C89",
"8. c #378987",
"9. c #298B91",
"0. c #2E9495",
"q. c #758291",
"w. c #7B8996",
"e. c #768A9B",
"r. c #7B94A6",
"t. c #9F8586",
"y. c #848A98",
"u. c #92929F",
"i. c #AD8585",
"p. c #A28B8C",
"a. c #B88385",
"s. c #BD8B8A",
"d. c #B68184",
"f. c #AF9F80",
"g. c #BF918D",
"h. c #A59192",
"j. c #BE9E93",
"k. c #BAA59D",
"l. c #829DAC",
"z. c #9594A1",
"x. c #999AA5",
"c. c #86A1AF",
"v. c #86A2B0",
"b. c #89A5B2",
"n. c #8CA9B5",
"m. c #92AEB9",
"M. c #95AEB7",
"N. c #95B2BB",
"B. c #9CB5BF",
"V. c #A5A7B1",
"C. c #A3A4AE",
"Z. c #C2958E",
"A. c #C39490",
"S. c #C69B95",
"D. c #D69E8A",
"F. c #CAA29A",
"G. c #CEA494",
"H. c #D3A695",
"J. c #D0BA8B",
"K. c #E9AA94",
"L. c #CDAEA0",
"P. c #C7B2A6",
"I. c #D5BFAF",
"U. c #D9B7A4",
"Y. c #EDBAA4",
"T. c #E3BDA8",
"R. c #E1B9A4",
"E. c #D5C796",
"W. c #F9D38D",
"Q. c #F3DE9D",
"!. c #EAC98D",
"~. c #FDE59F",
"^. c #ECD3BD",
"/. c #EACEB8",
"(. c #FEEBA5",
"). c #9BB8C0",
"_. c #A6BCC2",
"`. c #A9C2C8",
"'. c #BFD1D6",
"]. c #B5CCD0",
"[. c #D7DEE0",
"{. c #DFE3E5",
"}. c #E0E4E6",
/* pixels */
"i K K K K K K K K 3.K t.t.3.K G i K K K K K K K K 3.K t.t.3.K G ",
"S i.s.a.a.s.X t K X X X X > A.J . X X d.a.s.A.A.A.A.A.A.A.A.A.A.",
"J A.A.F.S.< O.J.H !.!.#.+.^ ; v } { T > S.S.A.A.A.A.A.A.A.A.A.A.",
"G A.A.A.A.X (.E.H f.4 4 $.@.  B $..._ . A.A.A.A.A.A.A.A.A.A.A.s.",
"K K 3.t.t.X (.Q.J.O.3 N $.$. .} *...[ . t.3.K G i K K K K K 3.t.",
"A.A.A.A.A.X W.~.W.W.| @.*.*.%.&.*...` . A.A.A.A.S i.s.s.s.A.A.A.",
"A.A.A.A.A.X B A Z Z B B B B m m B v 2 . A.A.A.A.J A.A.F.S.A.A.A.",
"A.A.A.A.F x.x.: y.h h q.q.- <.s a : f w S A.A.s.G A.A.A.A.A.A.A.",
"i K K K > z.z.: y.h h <.<.X >.s f : w w - K K K 3.3.p.h.t.3.K G ",
"K A.A.A.<   2 p D D D D D D 6 k k k @ . > A.A.A.A.A.A.A.A.A.A.A.",
"V K i.s.i . Q D.T.T.T.T.T.R. .I I I x . u A.A.A.A.A.A.A.A.A.A.A.",
"G A.F.S.A.X ( U.L.Y.Y.Y.^.k.K./ Y I I . A.A.A.A.A.A.A.A.A.A.A.s.",
"K t.h.p.t.X ] G.n ~ ( ] Y.5 K.] ( Y I . t.3.K G i K K K K K K K ",
"A.A.A.A.A.X ] ] ] n M ] ] ] ] ] ] Q U . a.A.A.A.S K A.s.s.a.A.A.",
"A.A.A.A.A.X ] ] ] o.X.] X.] ] ) ) Q z . L a.A.A.J S.S.S.A.S.A.A.",
"A.A.A.A.A.X ] ] ] ] ] ] ] ] ) / Y Y o   L 5.A.s.F g.g.g.g.g.g.A.",
"i K K K K X ] ] ] ] ] ] ] ) W / I O .   X G K t . . . . . . . g ",
"S i.s.a.r . / ] ] ] ] ] ] ) Y n l + P G.P.y G ,.M.[.{._.}.}.}.j ",
"J A.A.D k.- I / ! ( ] ! / ) I b . . Z./.I.3 F :.b.B.B.m.B.B.`.e ",
"G A.A.u P.; I E c Y Y I I E @ l . C H.^.I.3 F d c.).n.n.m.N.'.h ",
"F < g t j.- O z + R R @ U z . o 5 ' g j I., u d c.l.n.n.b.v.`.e ",
"j V.1.; y . . + X O + . O +     1 5 X   j ; < d c.c.n.n.b.b.).9 ",
"0 ].>.  8 >.>.>.w.z.V.V.w.C.w.w.q.>.>.a q     d c.n.n.n.n.n.).9 ",
"8 n.s   8 :.:.:.<.y.z.z.<.u.<.<.,.:.:.q 8     d c.n.n.n.n.n.).9 ",
"0 :.9 t t .                           t t t , d c.n.n.n.n.n.).9 ",
"F u K A.A.X $ % % % % % % % % % % $   Z.A.A.F d c.N.n.n.n.m.).9 ",
"V K i.s.a.X -.9.9.0.9.0.0.0.9.9.9.-.# s.a.A.F d c.N.n.n.n.m.).9 ",
"G A.F.S.A.X 9.9.6.7.;.8.7.7.=.=.=.-.# S.A.A.F s l.r.v.v.l.r.N.9 ",
"K t.h.p.t.X 9.-.& > > > > > > > > &   p.t.3.g w 2.2.2.2.2.2.e.0 ",
"A.A.A.A.A.X 6.* 7 K A.s.s.a.A.A.A.u > Z.A.A.A.S X - > ; ; ; > 4.",
"A.A.A.A.A.> = < J S.S.S.A.S.A.A.A.A.A.A.A.A.A.A.J S.S.S.A.S.A.A.",
"A.A.A.A.A.A.  < G A.A.A.A.A.A.A.A.A.A.A.A.A.A.s.G A.A.A.A.A.A.A."
};
