/* XPM */
static char *_[] = {
/* columns rows colors chars-per-pixel */
"32 32 26 1 ",
"  c #6E5967",
". c #775B6A",
"X c #7D5E6C",
"o c #80626E",
"O c #86616F",
"+ c #836771",
"@ c #8D6471",
"# c #906873",
"$ c #936D76",
"% c #957178",
"& c #98767B",
"* c #A66D79",
"= c #AD707B",
"- c #9C7D80",
"; c #B57C82",
": c #9F8586",
"> c #AD8585",
", c #A28B8C",
"< c #B88285",
"1 c #BA8587",
"2 c #BD8B8A",
"3 c #A59192",
"4 c #C1928F",
"5 c #C39490",
"6 c #C69B95",
"7 c #CAA29A",
/* pixels */
"$&-::&-&&&&&&&&X$&-::&-&&&&&&&&X",
"55555555552<<2>+55555555552<<2>+",
"555555555566755%555555555566755%",
"255555555555555$255555555555555$",
":-&&&&&X$&-::-&&:-&&&&&X$&-::-&&",
"555222>+55555555555222>+55555555",
"5556755%555555555556755%55555555",
"5555555$255555555555555$25555555",
"$&-:3,--&&&&&&&X$&-:3,--&&&&&&&X",
"555555555555555&555555555555555&",
"55555555555<2>&o55555555555<2>&o",
"255555555555675$255555555555675$",
"&&&&&&&X$&-:,3:&&&&&&&&X$&-:,3:&",
"55<225&+5551<<<<<<<<155&55555555",
"5565666%551==========15&55555555",
"5555555$25;==*.  .*==;5$25555555",
"$&-::&-&&&#@O      O@#&&&&&&&&&X",
"5555555555<==.    .==<55552<<2>+",
"5555555555<====O*====<555566755%",
"2555555555;====O*====;555555555$",
":-&&&&&X$&%@@@@@@@@@@%&X$&-::-&&",
"555222>+5551<<<<<<<<155&55555555",
"5556755%55555555555462&o55555555",
"5555555$255555555555555$25555555",
"$&-:3,--&&&&&&&X$&-:3,--&&&&&&&X",
"555555555555555&555555555555555&",
"55555555555<2>&o55555555555<2>&o",
"255555555555675$255555555555675$",
"&&&&&&&X$&-:,3:&&&&&&&&X$&-:,3:&",
"55<225&+5555555555<225&+55555555",
"5565666%555555555565666%55555555",
"5555555$255555555555555$25555555"
};
