/* XPM */
static char *_[] = {
/* columns rows colors chars-per-pixel */
"32 32 173 2 ",
"   c #3F3851",
".  c #443B53",
"X  c #493D54",
"o  c #523E55",
"O  c #5B3E57",
"+  c #4C4157",
"@  c #554357",
"#  c #5B4257",
"$  c #574658",
"%  c #5E4558",
"&  c #5A4B5C",
"*  c #534B5D",
"=  c #654559",
"-  c #6C455B",
";  c #634B5B",
":  c #6E495B",
">  c #76455E",
",  c #7A465F",
"<  c #72495C",
"1  c #7B4C5E",
"2  c #64525F",
"3  c #6A525F",
"4  c #73535F",
"5  c #79505F",
"6  c #624E61",
"7  c #7E4760",
"8  c #645263",
"9  c #6A5561",
"0  c #6B5A65",
"q  c #675868",
"w  c #685E6A",
"e  c #725665",
"r  c #7B5461",
"t  c #725963",
"y  c #7D5962",
"u  c #755D6A",
"i  c #7C5E6C",
"p  c #6D626C",
"a  c #7E6067",
"s  c #76606C",
"d  c #7C626C",
"f  c #776570",
"g  c #746972",
"h  c #824F5F",
"j  c #844A60",
"k  c #974E65",
"l  c #845461",
"z  c #8C5361",
"x  c #825D64",
"c  c #8F5E66",
"v  c #945563",
"b  c #9F5566",
"n  c #955964",
"m  c #9C5965",
"M  c #A15367",
"N  c #A05A66",
"B  c #A85D67",
"V  c #A75468",
"C  c #AB5569",
"Z  c #AF5F69",
"A  c #B15A6A",
"S  c #856066",
"D  c #8C6267",
"F  c #81636C",
"G  c #88666A",
"H  c #836C6E",
"J  c #8C6B6F",
"K  c #916467",
"L  c #936568",
"P  c #9E6569",
"I  c #956C6C",
"U  c #9B6B6C",
"Y  c #826670",
"T  c #846A73",
"R  c #896A73",
"E  c #936D76",
"W  c #877073",
"Q  c #8F7077",
"!  c #887C7E",
"~  c #84797C",
"^  c #927170",
"/  c #9C7270",
"(  c #977A76",
")  c #987B77",
"_  c #937379",
"`  c #99767B",
"'  c #9D7F7A",
"]  c #A66169",
"[  c #A46C6C",
"{  c #AA6C6C",
"}  c #BB626B",
"|  c #B36D6E",
" . c #A6716F",
".. c #AB726F",
"X. c #B0736F",
"o. c #A17672",
"O. c #AE7772",
"+. c #A47974",
"@. c #AB7C76",
"#. c #A07D7E",
"$. c #B27470",
"%. c #BD7270",
"&. c #B37F77",
"*. c #BA7B74",
"=. c #C16C6F",
"-. c #C16F70",
";. c #C57372",
":. c #C87773",
">. c #C27E75",
",. c #CA7B75",
"<. c #99817D",
"1. c #A7867D",
"2. c #AC837B",
"3. c #B4837A",
"4. c #B8867C",
"5. c #BA8A7E",
"6. c #C28177",
"7. c #CC8277",
"8. c #CC8579",
"9. c #C38B7E",
"0. c #D18679",
"q. c #D38B7C",
"w. c #D6907F",
"e. c #A37E80",
"r. c #8D8182",
"t. c #9C8E8A",
"y. c #A78182",
"u. c #AA8283",
"i. c #A88A81",
"p. c #B18E81",
"a. c #B78C8B",
"s. c #B98D8B",
"d. c #AB958C",
"f. c #BD9585",
"g. c #B3978B",
"h. c #AC9D94",
"j. c #BBA596",
"k. c #B7A79A",
"l. c #CD9181",
"z. c #C09887",
"x. c #C09988",
"c. c #D79281",
"v. c #D99684",
"b. c #D49885",
"n. c #DA9A86",
"m. c #DB9D88",
"M. c #C39490",
"N. c #CEA18C",
"B. c #D7A18B",
"V. c #DCA38C",
"C. c #DDA792",
"Z. c #DBAD93",
"A. c #C9B29F",
"S. c #DEB094",
"D. c #DEB499",
"F. c #E0A68E",
"G. c #E0A88F",
"H. c #E2AD92",
"J. c #E5B396",
"K. c #E6B698",
"L. c #E6B598",
"P. c #E5B699",
"I. c #E7BB9D",
"U. c #E7BC9E",
"Y. c #E7B99B",
"T. c #E0BCA1",
"R. c #E9C4A6",
"E. c #EBCAAC",
"W. c #E4CBB0",
"Q. c #ECCFB1",
"!. c #E6D2B7",
"~. c #EDD3B5",
"^. c #EFDABC",
/* pixels */
"E Q s f f u s u u u u u u u u 6 e u s f f u s u u u u u u Y ` i ",
"M.' + . . . . .   . . . . . . . . . . . . . . .   . . . . u u.Y ",
"_ T h.h.d.1.d.~ . r.h.h.h.d.i.h.h.h.h.#.U U / F   y U o.o.J s R ",
"u p W.~.E.K.E.j.0 A.~.~.~.R.I.Q.~.~.~.C.0.0.c.&.% ..q.n.n.I + F ",
"q 0 D.U.I.K.I.D.N.P.U.U.U.Y.K.I.U.U.U.m.0.0.0.8.*.7.0.q.q.L X T ",
"u & ) ' ' ' ' ' ' ' ' ' ' ' ' ' ' ' ' I K K K K K K K K K 3 + y.",
"s . .                                                     . $ u.",
"u.d .                                                     8 ` s.",
"E Y .                                                     8 ` i ",
"M.#..                                                     u M.` ",
"' F x x 3                       ; x x r - .           . - r e i ",
"u ; 8.0.[     . X X . . . .     D 0.0.;.m . . .       . m z + F ",
"8 9 B.m.+.  . # v v < X h -     I n.V.q.[ . - -       . [ c + T ",
"u 0 S.H.2.    : =.=.z X ] n # . ^ G.L.n.... 7 j   o o . ..L + y.",
"u 0 S.L.p.    4 7.7.K + X.%.m o ( L.K.n.... 7 j   , , . ..L + y.",
"u 9 V.J.p.  4 [ 0.q.I + $.,.| @ ( K.K.n.... 7 k 1 b j . ..L + y.",
"6 3 b.H.p.  [ 0.0.v.o.% $.0.*.$ ( K.L.n.... 7 C } } z . ..L X e ",
"u 3 b.H.p.  [ 0.0.v.9...7.q.9.$ ( J.F.c.... 7 C } } z . ..L + u ",
"u 3 b.H.p.  o.6. .l.c.0.0.c.9.& ( J.V.w.... j A } } z . ..L + Y ",
"u 3 b.H.p.  @.+.@ 3.c.0.0.c.9.& ( J.V.w.... z } } } z . ..L + F ",
"q 9 V.J.p.  @.+.. @.q.7.L @.9.& ) L.H.v.... = z } A j . ..L X T ",
"u 0 S.K.p.  @.o.. ..0.>.% G 9.$ ) K.K.n....   = } M > . ..L + y.",
"u 0 S.K.p.   .U . ..0.>.% S *.$ ( K.K.n....   = } 1 X . ..L + y.",
"u 0 T.R.g.  P { r *.7.%.% l | @ <.R.R.V.O.. o 1 } =   . O.I + y.",
"6 p !.^.k.  v -.7.8.:.Z # 1 B o t.^.^.P.3.. , V } =   . 3./ X e ",
"u * ! r.g   = 5 y y r : X # : X w r.r.W t . O - < o   . t 3 + T ",
"u . & & & & & & & & & & & & & & + . & & $ o @ $ $ $ $ $ $ + X e ",
"u 2 f.x.x.x.x.x.z.5.4.5.f.x.x.x.d & p.3.{ N { $.$.$.$.$.$.x + F ",
"8 9 V.H.N.1.N.J.L.H.F.G.J.K.L.H.2.^ Z.n.7.;.,.7.,.,.$.U %.c + T ",
"u 3 b.m.@.. @.F.K.K.K.K.K.K.J.V.m.V.J.n.0.0.0.,.} } z X m l + y.",
"e.R F a 9   9 F H H H H H H H F a F H a y y y r < < % . = y _ a.",
"M.#..                                                     u M.M."
};
