/* XPM */
static char *C[] = {
/* columns rows colors chars-per-pixel */
"32 32 178 2 ",
"   c #3F3851",
".  c #423B55",
"X  c #493F56",
"o  c #413E5C",
"O  c #413F61",
"+  c #4C4257",
"@  c #44435C",
"#  c #4E4459",
"$  c #49485E",
"%  c #53465B",
"&  c #56495C",
"*  c #5D4B5F",
"=  c #424264",
"-  c #464E67",
";  c #4B4F67",
":  c #424369",
">  c #45496B",
",  c #564D61",
"<  c #4C546A",
"1  c #5A5C6E",
"2  c #444771",
"3  c #464C74",
"4  c #454C7B",
"5  c #475075",
"6  c #49547B",
"7  c #4A5B75",
"8  c #525F73",
"9  c #654F61",
"0  c #635363",
"q  c #685565",
"w  c #6D5B69",
"e  c #645E6F",
"r  c #745C6A",
"t  c #7D5E6C",
"y  c #665F70",
"u  c #4D647E",
"i  c #5E6174",
"p  c #55667B",
"a  c #74626F",
"s  c #7B616D",
"d  c #696577",
"f  c #7E6671",
"g  c #7A6977",
"h  c #766D79",
"j  c #80626E",
"k  c #826771",
"l  c #846B74",
"z  c #8B6D75",
"x  c #816F79",
"c  c #936D76",
"v  c #8D7077",
"b  c #927077",
"n  c #947379",
"m  c #98767B",
"M  c #977A7F",
"N  c #9B7A7E",
"B  c #A8787E",
"V  c #A5777D",
"C  c #475288",
"Z  c #48558C",
"A  c #4B5C89",
"S  c #465083",
"D  c #485791",
"F  c #495895",
"G  c #4A5B9A",
"H  c #4E638A",
"J  c #556C85",
"K  c #54758E",
"L  c #57798F",
"P  c #4E6593",
"I  c #4D609A",
"U  c #557790",
"Y  c #5C7E92",
"T  c #577B94",
"R  c #697082",
"E  c #61798F",
"W  c #747A86",
"Q  c #607B91",
"!  c #4B61A6",
"~  c #4C63AB",
"^  c #5170A4",
"/  c #5678AE",
"(  c #4D67B3",
")  c #4E6ABB",
"_  c #577FB6",
"`  c #5070BB",
"'  c #5479BD",
"]  c #4F6DC0",
"[  c #506FC0",
"{  c #5274C2",
"}  c #5479C3",
"|  c #9C7D80",
" . c #A47E81",
".. c #5D8297",
"X. c #61808F",
"o. c #6B828E",
"O. c #648694",
"+. c #6B8794",
"@. c #5886A0",
"#. c #5C8CA5",
"$. c #5C93AE",
"%. c #5780B8",
"&. c #5C8AB9",
"*. c #5F9ABD",
"=. c #6796A7",
"-. c #6994A7",
";. c #6296AC",
":. c #7096A0",
">. c #6C9EBD",
",. c #71A2AD",
"<. c #62A4BF",
"1. c #74ACB6",
"2. c #5781C5",
"3. c #5983C5",
"4. c #5C87C8",
"5. c #5C8CC8",
"6. c #5B8BC2",
"7. c #5D92CA",
"8. c #6C9FC7",
"9. c #6093CA",
"0. c #629BCC",
"q. c #6A9ECF",
"w. c #63A6C1",
"e. c #65AAC3",
"r. c #6BAEC2",
"t. c #64A4CF",
"y. c #68A2CF",
"u. c #65AEC9",
"i. c #66B3CE",
"p. c #73B7C6",
"a. c #7ABFCA",
"s. c #76BBC8",
"d. c #65ADD0",
"f. c #6DADD3",
"g. c #70A8D2",
"h. c #67B4D1",
"j. c #6CB3D3",
"k. c #6ABAD4",
"l. c #75B5D6",
"z. c #71BCD6",
"x. c #78B8D7",
"c. c #7BBED9",
"v. c #71C2D7",
"b. c #74C4D8",
"n. c #7CC2D9",
"m. c #77C8D9",
"M. c #7DCCDB",
"N. c #7CC8D4",
"B. c #7ED0DC",
"V. c #9F8586",
"C. c #948187",
"Z. c #AC8485",
"A. c #A28B8C",
"S. c #A78586",
"D. c #B28686",
"F. c #B88285",
"G. c #B28887",
"H. c #B78B8A",
"J. c #BD8C8A",
"K. c #B6938F",
"L. c #BF918F",
"P. c #A59192",
"I. c #BE9792",
"U. c #C0918E",
"Y. c #C39490",
"T. c #C69B95",
"R. c #CAA29A",
"E. c #80C1C7",
"W. c #81C5CB",
"Q. c #84C9CE",
"!. c #83CDDD",
"~. c #82D4DE",
"^. c #8DDBDE",
"/. c #89D6E0",
"(. c #86D9E0",
"). c #8BDDE1",
"_. c #8FE1E3",
"`. c #90E3E4",
/* pixels */
"c m | V.V.m | m m m m m m m m t c m | V.V.m | m m m m m m m m t ",
"Y.Y.Y.Y.Y.Y.Y.Y.Y.Y.J.F.F.J.Z.k Y.Y.Y.Y.Y.Y.Y.Y.Y.Y.J.F.F.J.Z.k ",
"Y.Y.Y.Y.Y.Y.Y.Y.Y.Y.T.T.R.Y.Y.n Y.Y.Y.Y.Y.Y.Y.Y.Y.Y.T.T.R.Y.Y.n ",
"J.Y.Y.Y.Y.Y.J.k X                               X k J.Y.Y.Y.Y.c ",
"V.| m m m n z * . . o o o @ @ @ @ @ @ @ @ @ @ @ $ w n V.V.| m m ",
"Y.Y.Y.J.D.m r % . : 6 A H H J K Y O.Y K L ..O.O.O.W l N H.Y.Y.Y.",
"Y.Y.Y.T.K.f % X . 5 ^ _ &.&.*.w.p.Q.s.e.r.N.Q.Q.E.+., f D.Y.Y.Y.",
"Y.Y.Y. .n q   @ > P %.7.0.t.j.b.~._.~.m.m.~.(.).^.,.p h M  .Y.Y.",
"c m | q 0 # . 5 P / 6.0.t.j.b.~.(._.).~.B.M.M.(._.E.,.o.e 0 m t ",
"Y.Y.Y.      . H 3.5.9.t.d.k.~.`.`.`.`.`.~.b.k.~.`.`.`.,.<   Y.m ",
"Y.Y.Y.      . A ' 2.4.7.t.j.M.`.`.`.`.`.~.z.j.b.~.~.~.=.<   m j ",
"J.Y.Y.      . Z ` { { 2.7.f.M.`.`.`.`.`.~.j.t.j.v.v.v.#.-   Y.c ",
"m m m       . C ) ] ] } 5.y.n.`.`.`.`.`.!.f.0.d.k.k.k.@.-   V.m ",
"Y.Y.F.      . C ) ] ] { 4.0.n.`.`.`.`.`.!.f.0.d.k.k.k.@.-   Y.Y.",
"Y.Y.T.      . C ) ] ] { 2.0.n.`.`.`.`.`.!.f.0.d.k.k.k.@.-   Y.Y.",
"Y.Y.Y.q 0 # . 3 G ~ ) { } 9.c.`.`.`.`.`.~.l.t.d.h.<.$.E y q Y.Y.",
"c m | l a &   = 2 D ( [ { 4.x.`.`.`.`.`.~.z.h.h.i.#.u i a s m t ",
"Y.Y.Y.Y.Z.s X X . 4 ! ) ) 3.l.`.`.`.`.`.~.b.h.i.e.U # r V J.Z.k ",
"Y.Y.Y.Y.H.m s * . : S G ( 3.l.`.`.`.`.`.~.b.u.$.T R f M I.Y.Y.n ",
"J.Y.Y.Y.U.H.Z.r X . o 4 ! 3.l.`.`.`.`.`.~.b.w.U ; g Z.H.U.Y.Y.c ",
"V.| m m m m n 9 & + . : Z / 8.!./._.).(.N.r.#.p & r M V.V.| m m ",
"Y.Y.Y.J.J.J.Z.r b r + o 2 A / q.c.).(.M.r...J d b Z.U.Y.Y.Y.Y.Y.",
"Y.Y.Y.T.R.Y.Y.n Y.v &     = F { g.).~.k.$.7 # 0 Y.Y.Y.Y.Y.Y.Y.Y.",
"Y.Y.Y.Y.Y.Y.Y.c J. .k 0 + o 4 I >.).a.;.Q d k s J.Y.Y.Y.Y.Y.Y.Y.",
"c m | V.P.A.| | m b l r % . O 3 -.^.1.J i h v m m m m m m m m t ",
"Y.Y.Y.Y.Y.Y.Y.Y.Y.Y.Y. .r # X @ X.E.:.1 r  .Y.Y.Y.Y.Y.Y.Y.Y.Y.m ",
"Y.Y.Y.Y.Y.Y.Y.Y.Y.Y.Y.B b r % . 8 O.W x m G.Y.Y.Y.Y.Y.F.J.Z.m j ",
"J.Y.Y.Y.Y.Y.Y.Y.Y.Y.Y.L.I.S.w   . @ a S.J.L.Y.Y.Y.Y.Y.Y.T.R.Y.c ",
"m m m m m m m t c m | V.A.C.q       0 z m m m t c m | V.A.P.V.m ",
"Y.Y.F.J.J.Y.m k Y.Y.Y.Y.Y.Y.Y.Y.Y.Y.F.J.J.Y.m k Y.Y.Y.Y.Y.Y.Y.Y.",
"Y.Y.T.Y.T.T.T.n Y.Y.Y.Y.Y.Y.Y.Y.Y.Y.T.Y.T.T.T.n Y.Y.Y.Y.Y.Y.Y.Y.",
"Y.Y.Y.Y.Y.Y.Y.c J.Y.Y.Y.Y.Y.Y.Y.Y.Y.Y.Y.Y.Y.Y.c J.Y.Y.Y.Y.Y.Y.Y."
};
