/* XPM */
static char *C02[] = {
/* columns rows colors chars-per-pixel */
"32 32 125 2 ",
"   c #3F3851",
".  c #433A52",
"X  c #403B57",
"o  c #473D55",
"O  c #4D3F56",
"+  c #413E59",
"@  c #413E5D",
"#  c #4B4056",
"$  c #45445B",
"%  c #42405D",
"&  c #514459",
"*  c #54445A",
"=  c #5A465C",
"-  c #5C4C5F",
";  c #604C5F",
":  c #43456D",
">  c #444975",
",  c #454C7B",
"<  c #464F7B",
"1  c #49567D",
"2  c #4B577E",
"3  c #635162",
"4  c #6B5263",
"5  c #615569",
"6  c #60586B",
"7  c #7A5969",
"8  c #7D5E6C",
"9  c #636375",
"0  c #716778",
"q  c #72707D",
"w  c #71717F",
"e  c #80626E",
"r  c #836771",
"t  c #8A6270",
"y  c #8C6872",
"u  c #8B6D75",
"i  c #926D76",
"p  c #936D76",
"a  c #976E77",
"s  c #9F6976",
"d  c #927178",
"f  c #93737A",
"g  c #957178",
"h  c #98767B",
"j  c #9D7A7E",
"k  c #9F7B7F",
"l  c #465082",
"z  c #4C608B",
"x  c #54768E",
"c  c #516B96",
"v  c #587D94",
"b  c #547699",
"n  c #747682",
"m  c #4C62A8",
"M  c #4F6AAE",
"N  c #4D66B2",
"B  c #4D67B4",
"V  c #4F6CBE",
"C  c #4F6DC0",
"Z  c #506FC0",
"A  c #5070C1",
"S  c #5275C2",
"D  c #5479C3",
"F  c #547BC3",
"G  c #577FC5",
"H  c #9C7D80",
"J  c #B57C82",
"K  c #56819B",
"L  c #5C819A",
"P  c #678D9A",
"I  c #668D9F",
"U  c #5988A2",
"Y  c #5984BD",
"T  c #6590A1",
"R  c #6090A5",
"E  c #6C97A2",
"W  c #6D9AA5",
"Q  c #72A3AD",
"!  c #75A5AE",
"~  c #5782C5",
"^  c #5883C6",
"/  c #5884C5",
"(  c #5A89C7",
")  c #5B8BC8",
"_  c #5D8FC9",
"`  c #5E91CA",
"'  c #5D92CA",
"]  c #5F93CA",
"[  c #6096CB",
"{  c #6097CC",
"}  c #6198CC",
"|  c #6099CC",
" . c #63A1CE",
".. c #72B0CA",
"X. c #71BACD",
"o. c #79B8CE",
"O. c #69A4D0",
"+. c #65AAD0",
"@. c #65ACD0",
"#. c #68B8D3",
"$. c #73B4D5",
"%. c #74BAD6",
"&. c #72C3D7",
"*. c #7BC0D9",
"=. c #77C8D9",
"-. c #7ACBDB",
";. c #7ED0DC",
":. c #9F8586",
">. c #AD8585",
",. c #A28B8C",
"<. c #B88285",
"1. c #BA8587",
"2. c #BD8B8A",
"3. c #A59192",
"4. c #C1928F",
"5. c #C39490",
"6. c #C49995",
"7. c #C69B95",
"8. c #CAA29A",
"9. c #88D5D9",
"0. c #89DBE1",
"q. c #8BDEE2",
"w. c #8CDEE2",
"e. c #8FE2E4",
"r. c #90E3E4",
/* pixels */
"p h H :.:.h H h h h h h h h h 8 p h H :.:.h H h h h h h h h h 8 ",
"5.5.5.5.5.5.5.5.5.5.2.<.<.2.>.r 5.5.5.5.5.5.5.5.5.5.2.<.<.2.>.r ",
"5.5.5.5.5.5.5.5.5.5.7.7.8.5.5.g 5.5.5.5.5.5.5.5.5.5.7.7.8.5.5.g ",
"2.5.5.5.5.5.5.5.5.5.5.5.5.5.5.p 2.5.5.5.5.5.5.5.5.5.5.5.5.5.5.p ",
":.H h h h h h 8 p h H :.:.H h h :.H h h h h h 8 p h H :.:.H h h ",
"5.5.5.2.2.2.>.r 5.5.5.5.5.5.5.5.5.5.5.2.2.2.>.r 5.5.5.5.5.5.5.5.",
"5.5.5.7.8.5.5.g 5.5.5.5.5.5.5.5.5.5.5.7.8.5.5.g 5.5.5.5.5.5.5.5.",
"5.5.5.5.5.5.5.p 2.5.5.5.5.5.5.5.5.5.5.5.5.5.5.p 2.5.5.5.5.5.5.5.",
"p h H :.3.,.H H h h h h h h h 8 p h H :.3.,.H H h h h h h h h 8 ",
"5.5.5.5.5.5.5.5.5.5.f                     f 5.5.5.5.5.5.5.5.5.h ",
"5.5.5.5.5.5.5.5.5.f 3 + z c b K K T W W W n f 5.5.5.5.<.2.>.h e ",
"2.5.5.5.5.5.5.5.j 3 % 1 Y | +.#.#.-.0.r.r.E w j 5.5.5.5.7.8.5.p ",
"h h h h h h h 8     1 ( [ @.#.#.#.#.=.r.r.r.Q   p h H :.,.3.:.h ",
"5.5.<.2.2.5.h r     , S D '  . . . .%.r.r.;.R   5.5.5.5.5.5.5.5.",
"5.5.7.5.7.7.7.g     , C C ^ ' | | | $.r.r.=.U   5.5.5.5.5.5.5.5.",
"5.5.5.5.5.5.5.p & o > N V D ) | | | $.e.q.X.L # 2.5.5.5.5.5.5.5.",
"p h H :.:.h H h u - X : B Z G | | | $.w.&.x 6 u h h h h h h h 8 ",
"5.5.5.5.5.5.5.5.5.j 4 X , m D _ { | $.9.v 0 j 5.5.5.2.<.<.2.>.r ",
"5.5.5.5.5.5.5.5.5.5.a = . l M ~ ' O...! 5 a 5.5.5.5.7.7.8.5.5.g ",
"2.5.5.5.5.5.5.5.5.5.J s O   , A / *.Q O s J 5.5.5.5.5.5.5.5.5.p ",
":.H h h h h h 8 p h g t 7 * @ 1 o.I 9 7 t g h 8 p h H :.:.H h h ",
"5.5.5.2.2.2.>.r 5.5.5.1.<.y ; $ P w y <.1.5.5.h 5.5.5.5.5.5.5.5.",
"5.5.5.7.8.5.5.g 5.5.5.5.5.5.f     f 5.4.7.2.h e 5.5.5.5.5.5.5.5.",
"5.5.5.5.5.5.5.p 2.5.5.5.5.5.5.5.5.5.5.5.5.5.5.p 2.5.5.5.5.5.5.5.",
"p h H :.3.,.H H h h h h h h h 8 p h H :.3.,.H H h h h h h h h 8 ",
"5.5.5.5.5.5.5.5.5.5.5.5.5.5.5.h 5.5.5.5.5.5.5.5.5.5.5.5.5.5.5.h ",
"5.5.5.5.5.5.5.5.5.5.5.<.2.>.h e 5.5.5.5.5.5.5.5.5.5.5.<.2.>.h e ",
"2.5.5.5.5.5.5.5.5.5.5.5.7.8.5.p 2.5.5.5.5.5.5.5.5.5.5.5.7.8.5.p ",
"h h h h h h h 8 p h H :.,.3.:.h h h h h h h h 8 p h H :.,.3.:.h ",
"5.5.<.2.2.5.h r 5.5.5.5.5.5.5.5.5.5.<.2.2.5.h r 5.5.5.5.5.5.5.5.",
"5.5.7.5.7.7.7.g 5.5.5.5.5.5.5.5.5.5.7.5.7.7.7.g 5.5.5.5.5.5.5.5.",
"5.5.5.5.5.5.5.p 2.5.5.5.5.5.5.5.5.5.5.5.5.5.5.p 2.5.5.5.5.5.5.5."
};
