/* XPM */
static char *EO[] = {
/* columns rows colors chars-per-pixel */
"32 32 229 2 ",
"   c #6E5967",
".  c #6F5967",
"X  c #6F5A68",
"o  c #6C5C6A",
"O  c #6E5C6A",
"+  c #6E5F6D",
"@  c #705968",
"#  c #705A68",
"$  c #715A68",
"%  c #725A68",
"&  c #725A69",
"*  c #735B69",
"=  c #745B69",
"-  c #755B69",
";  c #755B6A",
":  c #765C69",
">  c #775C6A",
",  c #785D6A",
"<  c #785C6B",
"1  c #795D6B",
"2  c #7A5D6B",
"3  c #7B5E6B",
"4  c #7A5D6C",
"5  c #7B5D6C",
"6  c #7D5E6C",
"7  c #7D5F6C",
"8  c #7F5F6C",
"9  c #7E5E6D",
"0  c #7F5F6D",
"q  c #7E5F6E",
"w  c #7F5F6E",
"e  c #6A616F",
"r  c #6F606D",
"t  c #7E606B",
"y  c #7E606C",
"u  c #7F636E",
"i  c #6D6371",
"p  c #6F6270",
"a  c #696776",
"s  c #6C6A79",
"d  c #716473",
"f  c #7E6272",
"g  c #7A6473",
"h  c #706E7C",
"j  c #71707D",
"k  c #805F6B",
"l  c #805F6C",
"z  c #805F6D",
"x  c #80606D",
"c  c #81606D",
"v  c #82606D",
"b  c #83606D",
"n  c #82606E",
"m  c #83606E",
"M  c #83616E",
"N  c #84606D",
"B  c #84626D",
"V  c #84606F",
"C  c #85616F",
"Z  c #86616F",
"A  c #84636E",
"S  c #86626E",
"D  c #86636E",
"F  c #86626F",
"G  c #87626F",
"H  c #89636F",
"J  c #8A646F",
"K  c #836771",
"L  c #856670",
"P  c #886170",
"I  c #896271",
"U  c #8A6370",
"Y  c #8C6371",
"T  c #8D6372",
"R  c #8B6470",
"E  c #8B6570",
"W  c #8C6570",
"Q  c #8D6670",
"!  c #8E6472",
"~  c #856972",
"^  c #866872",
"/  c #876B75",
"(  c #8A6B73",
")  c #8F6972",
"_  c #8A6D74",
"`  c #8E6F76",
"'  c #906472",
"]  c #906572",
"[  c #916573",
"{  c #916672",
"}  c #956773",
"|  c #936574",
" . c #946674",
".. c #956774",
"X. c #976775",
"o. c #916E75",
"O. c #926D76",
"+. c #936D76",
"@. c #986874",
"#. c #986875",
"$. c #996975",
"%. c #9A6876",
"&. c #9A6976",
"*. c #9B6976",
"=. c #9C6976",
"-. c #9D6977",
";. c #9D6A76",
":. c #9E6A77",
">. c #9F6A77",
",. c #9D6C74",
"<. c #8F777C",
"1. c #957178",
"2. c #977378",
"3. c #96747A",
"4. c #98767A",
"5. c #98777A",
"6. c #98767B",
"7. c #9A777A",
"8. c #99797B",
"9. c #997A7C",
"0. c #997B7C",
"q. c #9A7C7D",
"w. c #997E7F",
"e. c #A16B77",
"r. c #A16E76",
"t. c #A36B79",
"y. c #A26C78",
"u. c #A56D78",
"i. c #A56C79",
"p. c #A66C79",
"a. c #A76E79",
"s. c #A76D7A",
"d. c #A86E7A",
"f. c #A96E7A",
"g. c #AA6E7A",
"h. c #AA6F7A",
"j. c #AB6F7B",
"k. c #B06F78",
"l. c #A37579",
"z. c #A0767B",
"x. c #AD707B",
"c. c #A37D7F",
"v. c #637A8A",
"b. c #9C7D80",
"n. c #A47D80",
"m. c #6B808F",
"M. c #77818D",
"N. c #698190",
"B. c #6E8593",
"V. c #79929D",
"C. c #9A8181",
"Z. c #9A8283",
"A. c #9C8385",
"S. c #9A8686",
"D. c #9A8787",
"F. c #9F8586",
"G. c #A18180",
"H. c #A28281",
"J. c #A78080",
"K. c #A98583",
"L. c #AA8784",
"P. c #AD8585",
"I. c #AB8A86",
"U. c #AC8A86",
"Y. c #AB8D89",
"T. c #AC8D89",
"R. c #AA8C8C",
"E. c #AB8E8D",
"W. c #B88888",
"Q. c #BD8B8A",
"!. c #BF8E89",
"~. c #BD8F8D",
"^. c #AB918D",
"/. c #BE908E",
"(. c #AB9490",
"). c #AB9692",
"_. c #AB9894",
"`. c #AB9994",
"'. c #C28685",
"]. c #CC8082",
"[. c #D18184",
"{. c #D78988",
"}. c #C1948C",
"|. c #DA938E",
" X c #DA958F",
".X c #C39490",
"XX c #C59D91",
"oX c #CC9F93",
"OX c #E38B8A",
"+X c #EA9F95",
"@X c #CDA396",
"#X c #EBA196",
"$X c #EBA297",
"%X c #ECA498",
"&X c #EDA79A",
"*X c #EEA89A",
"=X c #EEA99B",
"-X c #DEB4A5",
";X c #E5B7A4",
":X c #EDBAA6",
">X c #F2B4A1",
",X c #F3B6A2",
"<X c #F5BBA5",
"1X c #F2BDA6",
"2X c #F7C1A9",
"3X c #F6C6AC",
"4X c #F8C2A9",
"5X c #F8C3A9",
"6X c #F9C4AA",
"7X c #F9C6AB",
"8X c #F9C6AC",
"9X c #F9C7AD",
"0X c #FAC7AC",
"qX c #FAC8AC",
"wX c #FAC8AD",
"eX c #FAC9AD",
"rX c #FBC9AD",
"tX c #FBCAAE",
"yX c #FBCBAF",
"uX c #FBCCB0",
"iX c #FACCB1",
"pX c #FBCDB1",
"aX c #FBCEB2",
"sX c #FACEB3",
"dX c #FBCFB3",
"fX c #FBD1B5",
"gX c #FBD4B8",
"hX c #FAD4B9",
"jX c #FBD6BA",
/* pixels */
"+.6.b.F.A.~ H.+.+.I.U.(.^._.K.u J.U.T.^.(._.Y.+.+.H.~ 3.6.6.6.0 ",
".X.X/.n.E.;X3XXXXXwXwXsXsXsXwX0.8XwXwXsXsXsXwXXXXX3X;XE.l.W.P.K ",
".X~.c.-XhXsX4X!.!.2X4X4X4X4X<X2.,X4X4X4X4X4X2X!.!.4XsXhX-Xc.~.2.",
"Q.` :XfXwX*XOXk.Q r.r.r.r.r.r.u r.r.r.r.r.r.r.Q k.OX*XwXfX:X` +.",
"<.}.wXwX#X].t = *.|                         | *.= t ].#XwXwX}._ ",
"6.1XwX,X{.: : M M =                         = = $   : {.,XwX1X6.",
"0.wXwX&X,., :.x.p.$                           0 *. ., ,.&XwXwX0.",
"u K.L.l., , U U M                             = S U , , l.L.K.u ",
"6.4X8X+XL j f x.x.|                         $ t.x.f j L +X8X4X6.",
"S.hXwX*X~ M.g x.x.:.                        $ x.x.g M.~ *XwXhXS.",
"C.sXwX*XS U *.p.p.T                         $ :.p.*.U S *XwXsXC.",
"C.sXwX*XS                                   0 ' ' ' U S *XwXsXC.",
"q.wXwX*XJ p.x.x.t.$                         :.x.x.x.x.Q *XwXwXq.",
"( oX@X'.M ' *.*.' $                         S *.*.*.' M '.@XoX( ",
"( oX@X'.M ' *. .,                               0 *.' M '.@XoX( ",
"C.fXwX*XQ x.x.x.S                               } x.x.Q *XwXfXC.",
"C.fXwX*XS U ' T = i B.+                   h m.  5 ' U S *XwXfXC.",
"C.fXwX*XS $ 0 ,   e N.+                   h v.     .:.H *XwXfXC.",
"q.wXwX*XS S h.}   e N.+                   h v.    p.h.R *XwXwXq.",
"6.4X8X+XS = S 0   e N.+                   h v.    0 M S +X8X4X6.",
"u K.L.l.0 p.x.p.z e N.+                   h v.  , S = , l.L.K.u ",
"q.sXwX&XR h.x.h.M e N.+                   h v.  Q h.S S &XwXsXq.",
"S.hXwX*XS M U S = e N.+                   h v.$ 5 S , S *XwXhXS.",
"C.fXwX*XS M *.h.M O s O                   i a M h.*.M S *XwXfXC.",
"q.wXwX*X/ V.d x.S                             S x.d V./ *XwXwXq.",
"8.7XwX&XS r 0  .,                             ,  .0 r S &XwX7X8.",
"u K.L.l., ' *.*.' $                         $ ' *.*.' , l.L.K.u ",
"6.7X8X#XJ p.x.x.t.$                         $ x.x.x.x.Q #X8X7X6.",
"S.hXwX*XS                                   X U ' ' U S *XwXhXS.",
"0.8XwX&XH :.p.:.0                             $ 0 M : S &XwX8X0.",
") |. X[.S :.p.:.0                             z y.e.z k [. X|.) ",
"                                                                "
};
