/* XPM */
static char *P_D[] = {
/* columns rows colors chars-per-pixel */
"32 32 183 2 ",
"   c #3F3851",
".  c #433A52",
"X  c #493E55",
"o  c #563952",
"O  c #733E4E",
"+  c #683854",
"@  c #763B52",
"#  c #3B435A",
"$  c #354D64",
"%  c #36586A",
"&  c #36546C",
"*  c #315A71",
"=  c #296078",
"-  c #4B4157",
";  c #4D4359",
":  c #47455C",
">  c #514459",
",  c #57485C",
"<  c #5B4B5E",
"1  c #5A4758",
"2  c #7F424D",
"3  c #664C59",
"4  c #64575D",
"5  c #74545E",
"6  c #7C525B",
"7  c #5E4D60",
"8  c #4C556D",
"9  c #585A6E",
"0  c #585569",
"q  c #4F5B72",
"w  c #535D74",
"e  c #5D5E71",
"r  c #624E61",
"t  c #665464",
"y  c #6B5665",
"u  c #735B69",
"i  c #7D5E6C",
"p  c #7C5C63",
"a  c #546179",
"s  c #5C667C",
"d  c #5F697F",
"f  c #576076",
"g  c #7B626D",
"h  c #68687A",
"j  c #756976",
"k  c #803F4E",
"l  c #8C3956",
"z  c #B03956",
"x  c #C83E53",
"c  c #8F434E",
"v  c #855D59",
"b  c #9C4F53",
"n  c #A65957",
"m  c #85645D",
"M  c #BE6B5F",
"N  c #A96956",
"B  c #866D62",
"V  c #80626E",
"C  c #86666A",
"Z  c #877569",
"A  c #887B6F",
"S  c #836771",
"D  c #816A71",
"F  c #8C6D74",
"G  c #926D76",
"H  c #867B72",
"J  c #947178",
"K  c #98767B",
"L  c #AD707B",
"P  c #AB7173",
"I  c #DB4B4A",
"U  c #D6474B",
"Y  c #DD524D",
"T  c #D15148",
"R  c #CD4151",
"E  c #CF514F",
"W  c #E0564F",
"Q  c #E15750",
"!  c #E15850",
"~  c #DB705E",
"^  c #CA7959",
"/  c #E56456",
"(  c #E96F5C",
")  c #EE755E",
"_  c #E8795A",
"`  c #E96648",
"'  c #C07F71",
"]  c #F07860",
"[  c #EF895A",
"{  c #DA8E62",
"}  c #D99668",
"|  c #CE9E70",
" . c #CE8C70",
".. c #F19B65",
"X. c #F59570",
"o. c #F38768",
"O. c #DFB27D",
"+. c #DEB077",
"@. c #E6AA72",
"#. c #E0B87F",
"$. c #F3BE7B",
"%. c #F4B474",
"&. c #F2A068",
"*. c #F6C27D",
"=. c #2E7580",
"-. c #287988",
";. c #327D83",
":. c #636E81",
">. c #6C7A8B",
",. c #697587",
"<. c #717C8C",
"1. c #787583",
"2. c #6B7D91",
"3. c #9C7D80",
"4. c #A67F82",
"5. c #B57C82",
"6. c #2B848C",
"7. c #398C89",
"8. c #378987",
"9. c #298B91",
"0. c #2E9495",
"q. c #758291",
"w. c #7B8996",
"e. c #768A9B",
"r. c #7B94A6",
"t. c #9F8586",
"y. c #848A98",
"u. c #92929F",
"i. c #AD8585",
"p. c #A28B8C",
"a. c #B88385",
"s. c #BD8B8A",
"d. c #B68184",
"f. c #AF9F80",
"g. c #BF918D",
"h. c #A59192",
"j. c #BE9E93",
"k. c #BAA59D",
"l. c #829DAC",
"z. c #9594A1",
"x. c #999AA5",
"c. c #86A1AF",
"v. c #86A2B0",
"b. c #89A5B2",
"n. c #8CA9B5",
"m. c #92AEB9",
"M. c #95AEB7",
"N. c #95B2BB",
"B. c #9CB5BF",
"V. c #A5A7B1",
"C. c #A3A4AE",
"Z. c #C2958E",
"A. c #C39490",
"S. c #C69B95",
"D. c #D69E8A",
"F. c #CAA29A",
"G. c #CEA494",
"H. c #D3A695",
"J. c #D0BA8B",
"K. c #E9AA94",
"L. c #CDAEA0",
"P. c #C7B2A6",
"I. c #D5BFAF",
"U. c #D9B7A4",
"Y. c #EDBAA4",
"T. c #E3BDA8",
"R. c #E1B9A4",
"E. c #D5C796",
"W. c #F9D38D",
"Q. c #F3DE9D",
"!. c #EAC98D",
"~. c #FDE59F",
"^. c #ECD3BD",
"/. c #EACEB8",
"(. c #FEEBA5",
"). c #9BB8C0",
"_. c #A6BCC2",
"`. c #A9C2C8",
"'. c #BFD1D6",
"]. c #B5CCD0",
"[. c #D7DEE0",
"{. c #DFE3E5",
"}. c #E0E4E6",
/* pixels */
"G K 3.t.t.K 3.K K K K K K K K i G K 3.t.t.K 3.K K K K K K K K i ",
"A.A.A.A.A.A.A.A.A.A.s.a.d.X X . J A., X X X X K t X s.d.a.s.i.S ",
"A.A.A.A.A.A.A.A.A.A.S.S.> T { } v > ^ +.#.!.!.H J.O.< S.F.A.A.J ",
"s.A.A.A.A.A.A.A.A.A.A.A.. _ ..$.B   @.$.4 4 f.H E.(.X A.A.A.A.G ",
"t.3.K K K K K i G K 3.t.. [ ..*.}  .$.$.N 3 O.J.Q.(.X t.t.3.K K ",
"A.A.A.s.s.s.i.S A.A.A.A.. ` ..*.&.%.*.*.@.| W.W.~.W.X A.A.A.A.A.",
"A.A.A.S.F.A.A.J A.A.A.A.. 2 v B m m B B B B Z Z A B X A.A.A.A.A.",
"A.A.A.A.A.A.A.G s.A.A.S w f : a s <.- q.q.h h y.: x.x.F A.A.A.A.",
"G K 3.t.h.p.3.3.K K K - w w : f s >.X <.<.h h y.: z.z.> K K K i ",
"A.A.A.A.A.A.A.A.A.A.A.> . @ k k k 6 D D D D D D p 2   < A.A.A.K ",
"A.A.A.A.A.A.A.A.A.A.A.u . x I I I  .R.T.T.T.T.T.D.Q . i s.i.K V ",
"s.A.A.A.A.A.A.A.A.A.A.A.. I I Y / K.k.^.Y.Y.Y.L.U.( X A.S.F.A.G ",
"K K K K K K K i G K 3.t.. I Y ( ] K.5 Y.] ( ~ b G.] X t.p.h.t.K ",
"A.A.a.s.s.A.K S A.A.A.a.. U Q ] ] ] ] ] ] M n ] ] ] X A.A.A.A.A.",
"A.A.S.A.S.S.S.J A.A.a.L . z Q ) ) ] ] X.] X.o.] ] ] X A.A.A.A.A.",
"A.g.g.g.g.g.g.F s.A.5.L   o Y Y / ] ] ] ] ] ] ] ] ] X A.A.A.A.A.",
"g . . . . . . . t K G X   . O I / W ) ] ] ] ] ] ] ] X K K K K i ",
"j }.}.}._.{.[.M.,.J t P.G.P + l n Y ) ] ] ] ] ] ] / . r d.s.i.S ",
"e `.B.B.m.B.B.b.:.F r I./.Z.. . b I ) / ! ] ( ! / I - k.j A.A.J ",
"h '.N.m.n.n.).c.d F 3 I.^.H.C   l @ E I I Y Y c E I ; P.u A.A.G ",
"e `.v.b.n.n.l.c.d u , I.j g ' 5 o . z U @ R R + z O - j.t g < F ",
"9 ).b.b.n.n.c.c.d < ; j   X 5 1 .   + O . + O X + . . y > 1.V.j ",
"9 ).n.n.n.n.n.c.d     q a >.>.q.w.w.C.w.V.V.z.w.>.>.>.8   >.].0 ",
"9 ).n.n.n.n.n.c.d     8 q :.:.,.<.<.u.<.z.z.y.<.:.:.:.8 . s n.8 ",
"9 ).n.n.n.n.n.c.d , t t t                           . t t 9 :.0 ",
"9 ).m.n.n.n.N.c.d F A.A.A.  $ % % % % % % % % % % $ X A.A.K u F ",
"9 ).m.n.n.n.N.c.d F A.a.s.# -.9.9.9.0.0.0.9.0.9.9.-.X a.s.i.K V ",
"9 N.r.l.v.v.r.l.s F A.A.S.# -.=.=.=.8.7.8.;.7.6.9.9.X A.S.F.A.G ",
"0 e.2.2.2.2.2.2.w g 3.t.p.  & > > > > > > > > & -.9.X t.p.h.t.K ",
"4.> ; ; ; > - X S A.A.A.A.> u A.A.A.a.s.s.A.K 7 * 6.X A.A.A.A.A.",
"A.A.S.A.S.S.S.J A.A.A.A.A.A.A.A.A.A.S.A.S.S.S.J < = > A.A.A.A.A.",
"A.A.A.A.A.A.A.G s.A.A.A.A.A.A.A.A.A.A.A.A.A.A.G <   A.A.A.A.A.A."
};
