/* XPM */
static char *E2[] = {
/* columns rows colors chars-per-pixel */
"32 32 26 1 ",
"  c #3F3851",
". c #25667E",
"X c #7D5E6C",
"o c #80626E",
"O c #836771",
"+ c #926D76",
"@ c #936D76",
"# c #957178",
"$ c #98767B",
"% c #9C7D80",
"& c #298A91",
"* c #37AB9C",
"= c #48C38A",
"- c #9F8586",
"; c #AD8585",
": c #A28B8C",
"> c #B88285",
", c #BD8B8A",
"< c #A59192",
"1 c #8CA9B5",
"2 c #C39490",
"3 c #C69B95",
"4 c #CAA29A",
"5 c #91EA9C",
"6 c #B2D3CF",
"7 c #F0F7F4",
/* pixels */
"@$%--$%$$$$$$$$X@$%--$%$$$$$$$$X",
"2222222222,>>,;O2222222222,>>,;O",
"222222222233422#222222222233422#",
",22222222222222@,22222222222222@",
"-%$$$$$X@$%--%$$-%$$$$$X@$%--%$$",
"222,,,;O22222222222,,,;O22222222",
"2223422#222222222223422#22222222",
"2222222@,22222222222222@,2222222",
"@$%-<:%%$$$$$$$X@$%-<:%%$$$$$$$X",
"222222222222222$222222222222222$",
"22222222222>,;$o22222222222>,;$o",
",22222222   342@,222   22222342@",
"$$$$$$$X 55= <-$$$$ 55= @$%-:<-$",
"22>,,2$O =*          ** 22222222",
"2232333#   *==55=5==*   22222222",
"2222222@, *==========& @,2222222",
"@$%--$%$  == *= *== =& $$$$$$$$X",
"2222222 7 **    ** 7 & 222,>>,;O",
"2222222 77  55=5  77 & 22233422#",
",222222 671  ==  176 & 22222222@",
"-%$$$$$X 1  *==*  1 === @$%--%$$",
"222,,,; =          *=*== 2222222",
"2223422 = .&&&&&&&*== ** 2222222",
"2222222@  &&*========&  ,2222222",
"@$%-<:%%$ &===5=55==*. %$$$$$$$X",
"2222222222 =*      && 222222222$",
"2222222222 * ;$o222 . 22222>,;$o",
",2222222222  42@,222  222222342@",
"$$$$$$$X@$%-:<-$$$$$$$$X@$%-:<-$",
"22>,,2$O2222222222>,,2$O22222222",
"2232333#222222222232333#22222222",
"2222222@,22222222222222@,2222222"
};
